Coordinates
version=1
nRows=26
nColumns=24
inDegrees=yes

Units are S.I. units (second, meters, Newtons, ...)
Angles are in degrees.

endheader
time	pelvis_tilt	pelvis_list	pelvis_rotation	pelvis_tx	pelvis_ty	pelvis_tz	hip_flexion_r	hip_adduction_r	hip_rotation_r	knee_angle_r	ankle_angle_r	subtalar_angle_r	mtp_angle_r	hip_flexion_l	hip_adduction_l	hip_rotation_l	knee_angle_l	ankle_angle_l	subtalar_angle_l	mtp_angle_l	lumbar_extension	lumbar_bending	lumbar_rotation
      0.52100000	     -2.19061805	      5.46467889	      2.97219036	     -0.72188580	      0.97208686	      0.28424399	     28.56351074	     -3.95100263	     -6.45441773	     -5.33150019	      7.00408406	     -4.01580104	      6.80045751	    -14.66819256	      9.56491136	      2.61915960	     -5.89377001	     12.42188371	     -1.98190148	     -0.76708458	     -0.05259618	     -3.68372660	     -2.34124677
      0.52516667	     -2.23257166	      5.42911635	      3.03141629	     -0.71570085	      0.97147501	      0.28437459	     28.55790871	     -3.88689114	     -6.62184456	     -5.45074609	      6.86104587	     -4.09292795	      6.80257114	    -14.76005369	      9.48903810	      2.59044575	     -6.35596713	     12.38076793	     -1.93197905	     -0.75730841	      0.05141213	     -3.62659713	     -2.35334969
      0.52933333	     -2.28865360	      5.39114284	      3.08680665	     -0.70951206	      0.97087084	      0.28452029	     28.57110576	     -3.81941954	     -6.71638880	     -5.63651541	      6.65418890	     -4.20594431	      6.81797226	    -14.79529231	      9.40913152	      2.51943171	     -6.89706648	     12.34179090	     -1.79683790	     -0.72681807	      0.15295667	     -3.56236719	     -2.41552367
      0.53350000	     -2.29684295	      5.35515338	      3.11488374	     -0.70326049	      0.97036722	      0.28469192	     28.54315739	     -3.74758473	     -6.79063273	     -5.90594113	      6.49469979	     -4.30646094	      6.82367029	    -14.88951020	      9.33739246	      2.45781979	     -7.41729833	     12.20225352	     -1.81986065	     -0.71456605	      0.20859732	     -3.51886480	     -2.42693485
      0.53766667	     -2.38569317	      5.31077931	      3.14857581	     -0.69699441	      0.96978691	      0.28487932	     28.59227849	     -3.66537764	     -6.75983351	     -6.20421553	      6.17860084	     -4.63110204	      6.90258518	    -14.83299408	      9.25015975	      2.28234952	     -8.06612737	     12.18073665	     -1.54326522	     -0.58101297	      0.38613414	     -3.43435600	     -2.51928403
      0.54183333	     -2.43070472	      5.26080165	      3.18687844	     -0.69066387	      0.96933477	      0.28502717	     28.60338190	     -3.59319343	     -6.80875543	     -6.57807294	      5.82246689	     -4.80144134	      6.93253167	    -14.85114734	      9.16281436	      2.26215237	     -8.65249088	     11.98998404	     -1.53562267	     -0.52045224	      0.50230711	     -3.34821328	     -2.50963336
      0.54600000	     -2.50130413	      5.21794045	      3.21566349	     -0.68434036	      0.96887646	      0.28522134	     28.62997371	     -3.51653892	     -6.73913667	     -6.96248517	      5.44074524	     -5.10796521	      7.01098774	    -14.78111741	      9.08006615	      2.14336415	     -9.35484021	     11.82943483	     -1.45135503	     -0.36925215	      0.65472683	     -3.28726067	     -2.52706373
      0.55016667	     -2.57135667	      5.15509423	      3.21867506	     -0.67796827	      0.96845988	      0.28545284	     28.66444143	     -3.40884678	     -6.62373885	     -7.40245442	      5.02458767	     -5.53017353	      7.14456501	    -14.70143943	      8.97921157	      2.00382316	    -10.06906691	     11.64669160	     -1.34509719	     -0.09569858	      0.80831954	     -3.18801132	     -2.53012249
      0.55433333	     -2.60230392	      5.09215799	      3.22392821	     -0.67152274	      0.96815466	      0.28563689	     28.67125680	     -3.31983914	     -6.62273226	     -7.90947408	      4.54542948	     -5.72536618	      7.19076426	    -14.67921620	      8.88120153	      1.95698375	    -10.74460023	     11.31846248	     -1.33426561	      0.01965747	      0.92729495	     -3.07519096	     -2.51150097
      0.55850000	     -2.69178136	      5.03091893	      3.23345061	     -0.66513180	      0.96781520	      0.28588857	     28.70757407	     -3.21534270	     -6.44592626	     -8.36568650	      4.05408278	     -6.17619443	      7.31352375	    -14.49918775	      8.77614684	      1.79823233	    -11.59994567	     11.07114143	     -1.24188348	      0.33237827	      1.11288880	     -2.99513167	     -2.48710874
      0.56266667	     -2.74374310	      4.93474109	      3.21263253	     -0.65865934	      0.96758167	      0.28619034	     28.70433705	     -3.05921394	     -6.23632897	     -8.85974594	      3.59152088	     -6.86333734	      7.62041515	    -14.36303059	      8.62969959	      1.60142688	    -12.42747050	     10.70354163	     -1.05872896	      1.19324512	      1.26439536	     -2.84731318	     -2.44783410
      0.56683333	     -2.73904436	      4.81550529	      3.19142295	     -0.65214238	      0.96748117	      0.28647382	     28.62033776	     -2.88954817	     -6.10468751	     -9.31720586	      2.92300416	     -7.32716603	      8.79946708	    -14.26504136	      8.45740818	      1.43331340	    -13.28912620	     10.28575330	     -1.04358218	      4.98233029	      1.34824725	     -2.66679497	     -2.39115940
      0.57100000	     -2.81156400	      4.77009962	      3.15711528	     -0.64567190	      0.96729387	      0.28671852	     28.70278409	     -2.81555044	     -6.04853389	     -9.96146492	      2.42503454	     -7.37925274	      8.80254744	    -14.06484643	      8.38367641	      1.34268226	    -14.18087120	      9.76929436	     -1.07330933	      5.03796198	      1.51914387	     -2.58453501	     -2.37001441
      0.57516667	     -2.91001694	      4.69122748	      3.13304590	     -0.63922999	      0.96712770	      0.28701729	     28.77720993	     -2.69421071	     -5.88262334	    -10.54905521	      1.93474837	     -7.79357930	      8.82103460	    -13.75275241	      8.25718490	      1.15970088	    -15.22806631	      9.35727462	     -0.97660484	      5.27947344	      1.72956312	     -2.46595985	     -2.31148060
      0.57933333	     -2.96439774	      4.59796812	      3.11225158	     -0.63273625	      0.96710388	      0.28731884	     28.77293802	     -2.56269016	     -5.74075778	    -11.08171857	      1.36708995	     -8.07663703	      8.82651901	    -13.47555220	      8.10867384	      1.00916933	    -16.27776121	      8.77971330	     -0.91749998	      5.49126418	      1.89123726	     -2.33848344	     -2.25506459
      0.58350000	     -2.99095208	      4.47302703	      3.05450709	     -0.62624360	      0.96714454	      0.28770112	     28.74735886	     -2.37416323	     -5.53261536	    -11.64720188	      0.89696217	     -8.63509783	      8.93852823	    -13.19099370	      7.92034081	      0.78586633	    -17.36690243	      8.10113518	     -0.87087575	      9.97727659	      2.01653752	     -2.15416002	     -2.19468965
      0.58766667	     -3.03507813	      4.35619264	      3.01252028	     -0.61978290	      0.96719499	      0.28804960	     28.76028061	     -2.21802419	     -5.42129739	    -12.25754384	      0.45355564	     -8.89845042	      8.92262948	    -12.82794645	      7.73580131	      0.57184156	    -18.57228215	      7.50207812	     -0.72593100	     10.06303884	      2.15863975	     -1.98525983	     -2.12020051
      0.59183333	     -3.07919269	      4.23577117	      2.97145279	     -0.61332627	      0.96731923	      0.28841448	     28.74946333	     -2.05538796	     -5.27714877	    -12.82497103	      0.01632979	     -9.16251856	      8.90003548	    -12.43109761	      7.54349822	      0.38011695	    -19.81270102	      6.77042908	     -0.63452298	     10.18414282	      2.30824880	     -1.82047033	     -2.05651684
      0.59600000	     -3.09362663	      4.06884393	      2.92309978	     -0.60689688	      0.96750422	      0.28884603	     28.70526390	     -1.83094099	     -5.09457640	    -13.40533601	     -0.29382040	     -9.71515199	      8.83042621	    -12.00993780	      7.28257762	      0.12951352	    -21.14444960	      6.05382933	     -0.43006443	     10.59308700	      2.41254782	     -1.59997962	     -1.97286051
      0.60016667	     -3.09033120	      3.89826136	      2.83067553	     -0.60048338	      0.96774300	      0.28935338	     28.63151820	     -1.57687419	     -4.83832623	    -13.95232723	     -0.62712012	    -10.19669585	      8.61011526	    -11.57116805	      7.01574049	     -0.17770266	    -22.51365255	      5.23119491	     -0.28735574	     11.81531515	      2.49739330	     -1.37083863	     -1.91106356
      0.60433333	     -3.11807454	      3.76330543	      2.81355750	     -0.59412401	      0.96798253	      0.28969408	     28.62881124	     -1.43356300	     -4.84215114	    -14.59346511	     -0.89622472	    -10.19186107	      8.56938594	    -11.05678684	      6.78998336	     -0.31023317	    -23.94906565	      4.35414267	     -0.23021206	     12.00065150	      2.61915683	     -1.19496387	     -1.84635987
      0.60850000	     -3.11558195	      3.56976131	      2.76304124	     -0.58779606	      0.96828110	      0.29015569	     28.56927199	     -1.19005132	     -4.71981859	    -15.18807459	     -1.07301061	    -10.52090681	      7.57943433	    -10.52311300	      6.48213117	     -0.54226367	    -25.44883231	      3.41829222	     -0.16515777	     16.32738508	      2.69204913	     -0.93942324	     -1.77099918
      0.61266667	     -3.10806451	      3.39571734	      2.70853301	     -0.58152413	      0.96860081	      0.29063140	     28.51678570	     -0.97108128	     -4.62579031	    -15.80895906	     -1.17037730	    -10.74910903	      7.54518386	     -9.95204917	      6.18763254	     -0.76916027	    -27.00556231	      2.44377702	      0.01217437	     16.41114439	      2.75729596	     -0.72385464	     -1.71047228
      0.61683333	     -3.09626338	      3.20072983	      2.64909570	     -0.57528878	      0.96894607	      0.29112111	     28.44310669	     -0.72671295	     -4.52556609	    -16.39169863	     -1.23808923	    -10.87225980	      7.51443316	     -9.34751873	      5.86871284	     -0.98495756	    -28.61170411	      1.43846224	      0.11242098	     16.48530777	      2.81922447	     -0.48111998	     -1.65063957
      0.62100000	     -3.07325211	      2.98817940	      2.59849132	     -0.56911626	      0.96931810	      0.29162145	     28.35089923	     -0.46616556	     -4.44438444	    -16.96466601	     -1.24751291	    -11.05308782	      7.46981288	     -8.70943284	      5.51785751	     -1.19414522	    -30.27426993	      0.40745502	      0.23791373	     16.58563980	      2.85699485	     -0.21794893	     -1.58973176
      0.62516667	     -3.05704107	      2.76800716	      2.53743166	     -0.56302587	      0.96966964	      0.29215985	     28.27736580	     -0.18983441	     -4.35834546	    -17.55659678	     -1.23499108	    -11.32416982	      7.38418467	     -8.02463107	      5.15374503	     -1.40220863	    -31.98113573	     -0.63318704	      0.36759647	     16.75900357	      2.88597868	      0.05502421	     -1.52355694
